<?xml version="1.0" encoding="UTF-8"?>
<svg xmlns="http://www.w3.org/2000/svg" xmlns:xlink="http://www.w3.org/1999/xlink" width="258.512787pt" height="258.359985pt" viewBox="0 0 258.512787 258.359985" version="1.1">
<g id="surface1">
<path style=" stroke:none;fill-rule:nonzero;fill:rgb(68%,68%,68%);fill-opacity:1;" d="M 129.320312 122.226562 L 185.210938 66.332031 L 73.425781 66.332031 Z M 129.320312 122.226562 "/>
<path style=" stroke:none;fill-rule:nonzero;fill:rgb(66%,66%,66%);fill-opacity:1;" d="M 7.09375 0 L 63.394531 56.300781 L 185.769531 56.300781 L 129.46875 0 Z M 7.09375 0 "/>
<path style=" stroke:none;fill-rule:nonzero;fill:rgb(66%,66%,66%);fill-opacity:1;" d="M 197.597656 68.128906 L 258.507812 129.039062 L 197.320312 190.226562 L 136.410156 129.316406 Z M 197.597656 68.128906 "/>
<path style=" stroke:none;fill-rule:nonzero;fill:rgb(62%,62%,62%);fill-opacity:1;" d="M 258.636719 114.980469 L 258.636719 0 L 143.660156 0 Z M 258.636719 114.980469 "/>
<path style=" stroke:none;fill-rule:nonzero;fill:rgb(39%,39%,39%);fill-opacity:1;" d="M 122.226562 129.320312 L 0 7.09375 L 0 251.546875 Z M 122.226562 129.320312 "/>
<path style=" stroke:none;fill-rule:nonzero;fill:rgb(68%,68%,68%);fill-opacity:1;" d="M 204.417969 197.324219 L 258.636719 251.546875 L 258.636719 143.101562 Z M 204.417969 197.324219 "/>
<path style=" stroke:none;fill-rule:nonzero;fill:rgb(62%,62%,62%);fill-opacity:1;" d="M 129.320312 136.414062 L 7.09375 258.636719 L 251.542969 258.636719 Z M 129.320312 136.414062 "/>
</g>
</svg>
